<svg version="1.2" xmlns="http://www.w3.org/2000/svg" viewBox="0 0 1024 1024" width="1024" height="1024">
	<style>
		tspan { white-space:pre } 
		.s0 { fill: #008b5b } 
		.s1 { fill: #ffffff } 
		.t2 { font-size: 8px;fill: #ffffff;font-weight: 400;font-family: "D-DINExp", "D-DIN Exp" } 
	</style>
	<g id="Layer 1">
		<path id="Forma 4" fill-rule="evenodd" class="s0" d="m1044-42v1079h-1081v-1079z"/>
		<g id="Pasta 3">
			<g id="Pasta 1">
				<path id="Forma 1" fill-rule="evenodd" class="s1" d="m315.91 198.19c0 0 85.43-8.98 132.3 35.86 37.92 36.27 32.15 98.09 32.15 98.09 0 0-28.02-35.44-46.57-51.93-18.55-16.49-63.47-37.09-63.47-37.09 0 0 41.33 33.43 56.05 49.46 18.55 20.19 37.51 54.4 37.51 54.4 0 0-57.85 3.11-79.96-11.54-35.45-23.49-50.28-54.4-59.76-86.14-8.67-29.03-8.25-51.11-8.25-51.11z"/>
				<path id="Forma 2" fill-rule="evenodd" class="s1" d="m552.9 245.59l24.32 25.55c0 0-40.39 26.79-51.93 47.81-15.74 28.66-22.26 56.47-22.26 56.47 0 0-6.18 2.47-13.19 2.88-7.01 0.41-8.24-1.65-8.24-1.65 0 0 6.85-42.79 23.9-75.83 13.19-25.55 47.4-55.23 47.4-55.23z"/>
				<path id="Forma 3" fill-rule="evenodd" class="s1" d="m554.6 372.11c0 0-3.76 9.08-3.76 17.32 0 8.24 0.41 12.37 0.41 12.37l-17.31 9.06c0 0-24.37 9.69-45.81 10.11-28.89 0.55-67.12-30.3-106.68-28.24-39.57 2.06-60.18 22.25-73.78 37.09-13.6 14.84-39.56 55.57-30.5 110.87 10.22 62.35 14.78 69.04 24.71 89.74 11.08 23.12 30.1 55.92 47.99 75.84 17.33 19.3 43.24 34.41 59.08 35.77 15.85 1.36 41.66-7.02 41.66-7.02 0 0 2.71 3.62 9.5 9.51 6.79 5.89 12.68 10.19 12.68 10.19 0 0-42.33 15.39-61.12 13.58-18.79-1.81-42.56-9.06-62.93-27.85-20.96-19.32-63.05-71.78-79.02-120.24-15.96-48.45-27.13-99.67-15.16-142.99 11.97-43.33 37.29-82.2 80.05-99.87 42.75-17.67 81.62-10.14 100.43-1.59 18.81 8.55 33.34 20.49 55.57 19.92 22.23-0.57 63.99-23.57 63.99-23.57z"/>
				<path id="Forma 5" fill-rule="evenodd" class="s1" d="m375 441c-3.87 0-7-4.25-7-9.5 0-5.25 3.13-9.5 7-9.5 3.87 0 7 4.25 7 9.5 0 5.25-3.13 9.5-7 9.5z"/>
				<path id="Forma 6" fill-rule="evenodd" class="s1" d="m315 543c-4.98 0-9-3.58-9-8 0-4.42 4.02-8 9-8 4.98 0 9 3.58 9 8 0 4.42-4.02 8-9 8z"/>
				<path id="Forma 7" fill-rule="evenodd" class="s1" d="m376.77 440.73c0 0-24.54 7.53-34.68 21.09-11.83 15.84-15.62 30.53-17.09 45.62-1.47 15.09-1 28.14-1 28.14l-17.96 0.19c0 0-1.08-31.72 3.95-49.54 5.03-17.81 12.09-32.71 27.49-44.97 21.48-17.09 36.71-19.2 36.71-19.2"/>
				<path id="Forma 10" fill-rule="evenodd" class="s1" d="m424.5 664.5c-27.93 0-50.5-22.57-50.5-50.5 0-27.93 22.57-50.5 50.5-50.5 27.93 0 50.5 22.57 50.5 50.5 0 27.93-22.57 50.5-50.5 50.5zm34.25-50.75c0-18.11-14.64-32.75-32.75-32.75-18.11 0-32.75 14.64-32.75 32.75 0 18.11 14.64 32.75 32.75 32.75 18.11 0 32.75-14.64 32.75-32.75z"/>
				<path id="Forma 8" fill-rule="evenodd" class="s1" d="m425.5 632c-10.23 0-18.5-8.27-18.5-18.5 0-10.23 8.27-18.5 18.5-18.5 10.23 0 18.5 8.27 18.5 18.5 0 10.23-8.27 18.5-18.5 18.5z"/>
				<path id="Forma 11" fill-rule="evenodd" class="s1" d="m449.61 654.44c0 0 18.91 40 38.26 58.26 19.34 18.26 43.47 27.38 71.07 28.91 27.61 1.52 54.56-18.91 68.25-39.56 5.67-8.55 15.78-27.01 21.3-47.17 7.83-28.58 10.44-59.1 10.44-59.1 0 0-26.29-8.76-42.44-25.19-13.77-14-25.86-49.19-25.86-49.19l24.47-9.4c0 0 19.3 53.12 51.77 56.12 32.58 3.02 43.53-16.42 52.3-33.95 7.78-15.56 9.3-22.17 9.3-22.17l26.01 11.08c0 0-6.78 18.15-16.97 34.09-4.35 6.8-12.19 18.33-21.9 25.19-14.14 9.98-30.4 14.24-30.4 14.24 0 0-5.2 50.11-14.51 75.85-9.77 27.02-28.48 56.68-46.82 71.73-18.35 15.06-43.26 24.92-63.8 24.37-20.53-0.54-61.88-13.41-80.23-29.84-8.56-7.67-22.95-20.1-33.13-35.32-12.46-18.64-19.99-39.71-19.99-39.71"/>
				<path id="Forma 12" fill-rule="evenodd" class="s1" d="m603 531c-7.19 0-13-6.26-13-14 0-7.74 5.81-14 13-14 7.19 0 13 6.26 13 14 0 7.74-5.81 14-13 14z"/>
				<path id="Forma 12 copy" fill-rule="evenodd" class="s1" d="m741 533.87c-7.74 0-14-6.74-14-15.08 0-8.34 6.26-15.08 14-15.08 7.74 0 14 6.74 14 15.08 0 8.34-6.26 15.08-14 15.08z"/>
				<path id="Forma 13" fill-rule="evenodd" class="s1" d="m634 366c-9.95 0-18-8.05-18-18 0-9.95 8.05-18 18-18 9.95 0 18 8.05 18 18 0 9.95-8.05 18-18 18z"/>
				<path id="Forma 14" fill-rule="evenodd" class="s1" d="m619.58 339.52c0 0-14.8 2.25-28.78 11.12-9.76 6.2-15.5 18.57-16.98 22.08-2.97 7.04-5 24.97-4.67 31.75 0.34 6.96 1.76 20.17 7.08 49.69 4.15 23.09 10.67 42.09 10.67 42.09 0 0 4.33-3.99 8.4-5.01 4.08-1.02 10.45-0.42 10.45-0.42 0 0-6.2-19.55-10.82-41.74-3.56-17.1-6.71-36.59-6.93-43.64-0.46-15.01 0.89-20.09 6.66-31.63 4.54-9.07 18.23-13.76 26.31-13.99"/>
				<path id="Forma 13 copy" fill-rule="evenodd" class="s1" d="m710.12 334c9.95 0 18 8.05 18 18 0 9.95-8.05 18-18 18-9.96 0-18-8.05-18-18 0-9.95 8.04-18 18-18z"/>
				<path id="Forma 14 copy" fill-rule="evenodd" class="s1" d="m724.53 343.52c0 0 14.81 2.25 28.78 11.12 9.77 6.2 15.51 18.57 16.99 22.08 2.97 7.04 5 24.97 4.66 31.75-0.33 6.96-1.75 20.17-7.07 49.69-4.16 23.09-10.67 42.09-10.67 42.09 0 0-4.33-3.99-8.41-5.01-4.07-1.02-10.44-0.42-10.44-0.42 0 0 6.2-19.55 10.82-41.74 3.56-17.1 6.71-36.59 6.92-43.64 0.47-15.01-0.88-20.09-6.66-31.63-4.53-9.07-18.22-13.76-26.31-13.99"/>
			</g>
			<g id="Pasta 2">
				<path id="Forma 15" fill-rule="evenodd" class="s1" d="m514 636v48h-5v-48z"/>
				<path id="Forma 15 copy 10" fill-rule="evenodd" class="s1" d="m523 636v48h-5v-48z"/>
				<path id="Forma 15 copy" fill-rule="evenodd" class="s1" d="m598 636v48h-5v-48z"/>
				<path id="Forma 15 copy 2" fill-rule="evenodd" class="s1" d="m588 636v48h-5v-48z"/>
				<path id="Forma 15 copy 9" fill-rule="evenodd" class="s1" d="m506 636v48h-5v-48z"/>
				<path id="Forma 15 copy 3" fill-rule="evenodd" class="s1" d="m579 636v39h-5v-39z"/>
				<path id="Forma 15 copy 4" fill-rule="evenodd" class="s1" d="m570 636v39h-5v-39z"/>
				<path id="Forma 15 copy 5" fill-rule="evenodd" class="s1" d="m561 636v39h-5v-39z"/>
				<path id="Forma 15 copy 6" fill-rule="evenodd" class="s1" d="m552 636v39h-5v-39z"/>
				<path id="Forma 15 copy 7" fill-rule="evenodd" class="s1" d="m542 636v39h-5v-39z"/>
				<path id="Forma 15 copy 8" fill-rule="evenodd" class="s1" d="m532 636v39h-5v-39z"/>
				<text id="P o d e C o m e r" style="transform: matrix(.889,0,0,.889,552.923,683.256)">
					<tspan x="-29.3" y="0" class="t2">P</tspan><tspan  y="0" class="t2"> </tspan><tspan  y="0" class="t2">o</tspan><tspan  y="0" class="t2"> </tspan><tspan  y="0" class="t2">d</tspan><tspan  y="0" class="t2"> </tspan><tspan  y="0" class="t2">e</tspan><tspan  y="0" class="t2"> </tspan><tspan  y="0" class="t2">C</tspan><tspan  y="0" class="t2"> </tspan><tspan  y="0" class="t2">o</tspan><tspan  y="0" class="t2"> </tspan><tspan  y="0" class="t2">m</tspan><tspan  y="0" class="t2"> </tspan><tspan  y="0" class="t2">e</tspan><tspan  y="0" class="t2"> </tspan><tspan  y="0" class="t2">r</tspan><tspan  y="0" class="t2">
</tspan>
				</text>
			</g>
		</g>
	</g>
</svg>